<svg xmlns="http://www.w3.org/2000/svg" width="25" height="25" fill="none"><path fill="#000" d="M12.561 19.462a6.557 6.557 0 1 0 0-13.114 6.557 6.557 0 0 0 0 13.114Z"/><path fill="#fff" d="M8.815 12.762s3.248-1.382 4.375-1.869a177.47 177.47 0 0 1 1.896-.817s.676-.273.62.39c-.02.272-.17 1.225-.32 2.257l-.47 3.055s-.037.448-.356.526c-.319.078-.845-.273-.939-.35-.075-.059-1.408-.935-1.896-1.363-.131-.117-.281-.35.02-.623a73.065 73.065 0 0 0 1.97-1.946c.226-.233.45-.778-.488-.117-1.333.954-2.647 1.85-2.647 1.85s-.3.194-.864.019c-.563-.175-1.22-.409-1.22-.409s-.45-.292.32-.603Z"/></svg>