<svg xmlns="http://www.w3.org/2000/svg" width="25" height="25" fill="none"><path fill="#000" fill-rule="evenodd" d="M19.503 8.416c.101-.318 0-.552-.483-.552h-1.596c-.406 0-.593.202-.695.425 0 0-.811 1.863-1.961 3.073-.372.35-.541.462-.744.462-.102 0-.249-.111-.249-.43V8.416c0-.382-.117-.552-.456-.552h-2.508c-.254 0-.406.177-.406.345 0 .362.575.446.634 1.465v2.214c0 .485-.093.573-.296.573-.541 0-1.857-1.871-2.638-4.013-.153-.416-.306-.584-.714-.584H5.795c-.457 0-.548.202-.548.425 0 .398.541 2.373 2.52 4.984 1.319 1.784 3.177 2.75 4.868 2.75 1.015 0 1.14-.214 1.14-.584v-1.348c0-.43.097-.515.418-.515.237 0 .643.111 1.59.971 1.082 1.02 1.26 1.477 1.869 1.477h1.596c.456 0 .684-.215.553-.639-.144-.422-.661-1.035-1.347-1.761-.372-.414-.93-.86-1.099-1.083-.237-.287-.169-.414 0-.669 0 0 1.945-2.58 2.148-3.456Z" clip-rule="evenodd"/></svg>