<svg xmlns="http://www.w3.org/2000/svg" width="25" height="25" fill="none"><path fill="#000" d="M19.175 8.757a1.718 1.718 0 0 0-1.21-1.213c-1.066-.286-5.345-.286-5.345-.286s-4.276 0-5.345.286a1.718 1.718 0 0 0-1.21 1.213c-.285 1.069-.285 3.3-.285 3.3s0 2.233.285 3.302c.157.589.62 1.054 1.21 1.213 1.069.286 5.345.286 5.345.286s4.279 0 5.345-.286a1.718 1.718 0 0 0 1.21-1.213c.285-1.07.285-3.301.285-3.301s0-2.232-.285-3.301Z"/><path fill="#fff" d="m11.254 14.115 3.553-2.057L11.254 10v4.115Z"/></svg>