<svg width="40" height="47" viewBox="0 0 40 47" fill="none" xmlns="http://www.w3.org/2000/svg">
<path d="M28.657 0.911124C26.4312 1.15747 23.2812 3.03909 21.7172 5.05176C20.8148 6.20484 20.2843 7.30552 19.825 8.96177L19.5953 9.7899L19.6062 10.6704C19.6172 11.1526 19.6445 11.6034 19.6718 11.6768C19.7429 11.8497 19.8797 11.8759 20.8422 11.8812C21.6406 11.8864 21.6898 11.8812 22.3734 11.6873C24.2 11.1788 25.5398 10.4136 26.4914 9.32866C26.7211 9.06136 27.0656 8.70495 27.2461 8.52674C27.8476 7.96068 28.6187 6.70277 29.0453 5.61258C29.4718 4.51714 29.6632 3.50033 29.7179 2.05373L29.7507 1.12602L29.6086 0.989743C29.45 0.837745 29.3625 0.832504 28.657 0.911124Z" fill="#717171"/>
<path d="M28.1484 11.7449C27.0656 11.7973 24.1508 12.573 22.0562 13.3592C20.7875 13.8362 20.7875 13.8362 20.5359 13.8781C20.0984 13.9463 19.0265 13.6475 17.1836 12.9347C16.2047 12.5626 15.1984 12.2795 13.7109 11.9546C13.0875 11.8235 12.0539 11.8078 11.6054 11.9284C11.425 11.9755 10.8562 12.0856 10.3422 12.1695C9.23747 12.3581 8.61403 12.5416 7.78278 12.9347C5.27263 14.1087 3.56091 15.7964 2.20466 18.4381C1.6031 19.6016 1.16013 20.739 0.832002 21.9497C0.345283 23.7475 0.334346 27.1963 0.810127 29.2876C0.864814 29.5444 0.914033 29.8484 0.914033 29.9689C0.914033 30.2205 0.963252 30.4092 1.42263 32.1441C1.84919 33.7479 1.80544 33.6169 2.62028 35.5771C3.76325 38.3288 4.12419 38.9368 6.45935 42.0239C7.41638 43.2871 7.9031 43.8636 8.60856 44.5502C9.34685 45.2735 9.94294 45.6929 10.7851 46.0912C11.7367 46.5367 12.1523 46.6363 13.0273 46.631C14.1484 46.631 15.0508 46.4109 16.7679 45.7191C17.8508 45.284 17.9218 45.2631 19.8906 44.8752C20.4812 44.7547 21.0281 44.7651 21.8593 44.8962C22.1437 44.9381 22.5703 45.001 22.8 45.0324C23.2648 45.0953 23.7351 45.2421 24.9492 45.7086C26.4148 46.2746 27.4484 46.5262 28.5312 46.5891C30.1062 46.6835 31.6265 46.0126 33.2508 44.5188C34.9078 42.9831 36.4554 40.8813 38.0195 38.0458C38.4406 37.2806 39.1133 35.7134 39.2281 35.2417C39.2773 35.053 39.3593 34.8171 39.4195 34.7228C39.4742 34.6285 39.5234 34.4974 39.5234 34.4398C39.5234 34.2511 39.1242 33.9523 38.4187 33.6116C37.0898 32.9565 35.7828 31.8348 34.9023 30.5717C34.2734 29.6649 33.639 28.3074 33.4804 27.5055C33.2125 26.1847 33.1359 24.7381 33.289 23.7318C33.3273 23.4697 33.464 22.9194 33.5953 22.5001C34.1586 20.6813 34.5468 19.9528 35.4273 19.0513C35.6953 18.784 35.914 18.5376 35.914 18.5167C35.914 18.4276 37.2539 17.3531 37.582 17.1801C37.7625 17.0806 37.9922 16.9286 38.0906 16.8342C38.3914 16.5512 38.3476 16.4411 37.5929 15.592C36.5812 14.4547 35.307 13.5217 33.8086 12.8246C32.8734 12.3896 32.2281 12.1747 31.3258 11.9965C30.4015 11.8078 29.0234 11.6977 28.1484 11.7449Z" fill="#717171"/>
</svg>
